<?xml version="1.0" encoding="iso-8859-1"?>
<!-- Generator: Adobe Illustrator 16.0.0, SVG Export Plug-In . SVG Version: 6.00 Build 0)  -->
<!DOCTYPE svg PUBLIC "-//W3C//DTD SVG 1.1//EN" "http://www.w3.org/Graphics/SVG/1.1/DTD/svg11.dtd">
<svg fill="#fcdab7" version="1.1" id="Capa_1" xmlns="http://www.w3.org/2000/svg" xmlns:xlink="http://www.w3.org/1999/xlink" x="0px" y="0px"
	 width="92.378px" height="92.377px" viewBox="0 0 92.378 92.377" style="enable-background:new 0 0 92.378 92.377;"
	 xml:space="preserve">
<g>
	<g>
		<path d="M46.19,0C20.681,0,0,20.681,0,46.189c0,25.508,20.681,46.188,46.19,46.188c25.509,0,46.188-20.68,46.188-46.189
			C92.378,20.679,71.699,0,46.19,0z M46.19,84.825c-21.337,0-38.637-17.299-38.637-38.636c0-21.339,17.3-38.637,38.637-38.637
			c21.337,0,38.636,17.299,38.636,38.637C84.826,67.526,67.527,84.825,46.19,84.825z"/>
		<polygon points="25.426,31.309 41.5,31.309 41.5,76.569 50.88,76.569 50.88,31.309 66.954,31.309 66.954,24.114 25.426,24.114 		
			"/>
	</g>
</g>
<g>
</g>
<g>
</g>
<g>
</g>
<g>
</g>
<g>
</g>
<g>
</g>
<g>
</g>
<g>
</g>
<g>
</g>
<g>
</g>
<g>
</g>
<g>
</g>
<g>
</g>
<g>
</g>
<g>
</g>
</svg>
